<svg xmlns="http://www.w3.org/2000/svg" xmlns:xlink="http://www.w3.org/1999/xlink" version="1.1" x="0px" y="0px" viewBox="0 0 100 100" enable-background="new 0 0 100 100" xml:space="preserve"><path fill="#000000" d="M55.625,52.812c-0.518,0-0.938,0.419-0.938,0.938c0,2.585-2.102,4.688-4.688,4.688s-4.688-2.102-4.688-4.688  c0-0.518-0.419-0.938-0.938-0.938s-0.938,0.419-0.938,0.938c0,3.618,2.944,6.562,6.562,6.562s6.562-2.944,6.562-6.562  C56.562,53.232,56.143,52.812,55.625,52.812z"/><path fill="#000000" d="M42.5,47.188h-3.75c-0.518,0-0.938,0.419-0.938,0.938s0.419,0.938,0.938,0.938h3.75  c0.518,0,0.938-0.419,0.938-0.938S43.018,47.188,42.5,47.188z"/><path fill="#000000" d="M61.25,47.188H57.5c-0.518,0-0.938,0.419-0.938,0.938s0.419,0.938,0.938,0.938h3.75  c0.518,0,0.938-0.419,0.938-0.938S61.768,47.188,61.25,47.188z"/><path fill="#000000" d="M75.312,48.125c0-11.889-11.354-21.562-25.312-21.562s-25.312,9.673-25.312,21.562S36.042,69.688,50,69.688  c3.215,0,6.35-0.507,9.438-1.525c0.392,0,1.085,0.439,1.82,0.906c1.661,1.053,3.937,2.494,7.493,2.494  c0.324,0,0.626-0.168,0.798-0.445c0.17-0.277,0.185-0.621,0.041-0.912c-1.816-3.631-1.18-7.234-0.345-8.067  C73.157,58.243,75.312,53.267,75.312,48.125z M67.92,60.809c-1.424,1.423-1.906,5.16-0.628,8.778  c-2.205-0.312-3.748-1.289-5.032-2.102c-1.013-0.643-1.888-1.198-2.823-1.198c-0.248,0-0.489,0.041-0.718,0.117  c-2.776,0.934-5.709,1.408-8.72,1.408c-12.924,0-23.438-8.831-23.438-19.688S37.076,28.438,50,28.438s23.438,8.831,23.438,19.688  C73.438,52.763,71.479,57.27,67.92,60.809z"/></svg>