<svg xmlns="http://www.w3.org/2000/svg" xmlns:xlink="http://www.w3.org/1999/xlink" version="1.1" x="0px" y="0px" viewBox="0 0 100 100" enable-background="new 0 0 100 100" xml:space="preserve"><path fill="#000000" d="M50,69.688c3.618,0,6.562-2.944,6.562-6.562c0-0.518-0.419-0.938-0.938-0.938s-0.938,0.419-0.938,0.938  c0,2.585-2.102,4.688-4.688,4.688s-4.688-2.102-4.688-4.688c0-0.518-0.419-0.938-0.938-0.938s-0.938,0.419-0.938,0.938  C43.438,66.743,46.382,69.688,50,69.688z"/><path fill="#000000" d="M38.75,58.438h3.75c0.518,0,0.938-0.419,0.938-0.938s-0.419-0.938-0.938-0.938h-3.75  c-0.518,0-0.938,0.419-0.938,0.938S38.232,58.438,38.75,58.438z"/><path fill="#000000" d="M57.5,58.438h3.75c0.518,0,0.938-0.419,0.938-0.938s-0.419-0.938-0.938-0.938H57.5  c-0.518,0-0.938,0.419-0.938,0.938S56.982,58.438,57.5,58.438z"/><polygon fill="#000000" points="76.426,18.486 71.656,18.467 76.44,14.399 76.451,11.672 66.908,11.636 66.9,14.364 71.559,14.38   66.882,18.357 66.875,21.177 76.417,21.214 "/><polygon fill="#000000" points="78.828,11.301 82.311,11.312 78.817,14.285 78.808,16.391 85.94,16.418 85.947,14.38 82.382,14.366   85.955,11.326 85.966,9.29 78.833,9.261 "/><polygon fill="#000000" points="88.366,8.235 90.686,8.243 88.355,10.224 88.352,11.63 93.106,11.646 93.11,10.288 90.733,10.279   93.116,8.25 93.121,6.895 88.37,6.875 "/><path fill="#000000" d="M36.875,45.312h26.25c0.518,0,0.938-0.419,0.938-0.938s-0.419-0.938-0.938-0.938h-26.25  c-0.518,0-0.938,0.419-0.938,0.938S36.357,45.312,36.875,45.312z"/><path fill="#000000" d="M36.875,39.688h26.25c0.518,0,0.938-0.419,0.938-0.938s-0.419-0.938-0.938-0.938h-26.25  c-0.518,0-0.938,0.419-0.938,0.938S36.357,39.688,36.875,39.688z"/><path fill="#000000" d="M36.875,34.062h26.25c0.518,0,0.938-0.419,0.938-0.938s-0.419-0.938-0.938-0.938h-26.25  c-0.518,0-0.938,0.419-0.938,0.938S36.357,34.062,36.875,34.062z"/><path fill="#000000" d="M38.75,28.438h22.5c0.518,0,0.938-0.419,0.938-0.938s-0.419-0.938-0.938-0.938h-22.5  c-0.518,0-0.938,0.419-0.938,0.938S38.232,28.438,38.75,28.438z"/><path fill="#000000" d="M44.375,22.812h11.25c0.518,0,0.938-0.419,0.938-0.938s-0.419-0.938-0.938-0.938h-11.25  c-0.518,0-0.938,0.419-0.938,0.938S43.857,22.812,44.375,22.812z"/><path fill="#000000" d="M47.188,80.752v4.157c-4.062,0.624-5.625,2.587-5.625,4.466c0,0.518,0.419,0.938,0.938,0.938h15  c0.518,0,0.938-0.419,0.938-0.938c0-1.879-1.563-3.842-5.625-4.466v-4.157c11.6-1.397,20.625-11.283,20.625-23.252v-9.375  c0-0.518-0.419-0.938-0.938-0.938s-0.938,0.419-0.938,0.938v0.938h-1.875V35c0-10.856-8.831-19.688-19.688-19.688  S30.312,24.144,30.312,35v14.062h-0.938h-0.938v-0.938c0-0.518-0.419-0.938-0.938-0.938s-0.938,0.419-0.938,0.938V57.5  C26.562,69.47,35.588,79.355,47.188,80.752z M56.253,88.438H43.747c0.683-0.994,2.56-1.875,6.253-1.875S55.57,87.443,56.253,88.438z   M50.938,84.735c-0.315-0.015-0.599-0.048-0.938-0.048s-0.623,0.033-0.938,0.048V80.89c0.313,0.013,0.621,0.048,0.938,0.048  s0.625-0.035,0.938-0.048V84.735z M32.188,50.938h35.625v7.021c0,9.821-7.991,17.812-17.812,17.812s-17.812-7.991-17.812-17.812  V50.938z M50,17.188c9.822,0,17.812,7.991,17.812,17.812v14.062H32.188V35C32.188,25.178,40.178,17.188,50,17.188z M28.438,50.938  h0.938h0.938v7.021c0,10.856,8.831,19.688,19.688,19.688s19.688-8.832,19.688-19.688v-7.021h1.875V57.5  c0,11.889-9.673,21.562-21.562,21.562S28.438,69.389,28.438,57.5V50.938z"/></svg>