<svg xmlns="http://www.w3.org/2000/svg" xmlns:xlink="http://www.w3.org/1999/xlink" version="1.1" x="0px" y="0px" viewBox="0 0 100 100" enable-background="new 0 0 100 100" xml:space="preserve"><path fill="#000000" d="M66.875,75.781c0.518,0,0.938-0.419,0.938-0.938V20c0-0.519-0.419-0.938-0.938-0.938h-33.75  c-0.518,0-0.938,0.419-0.938,0.938v54.844c0,0.519,0.419,0.938,0.938,0.938H66.875z M34.062,20.938h31.875v52.969H34.062V20.938z"/><path fill="#000000" d="M50,77.188c-2.585,0-4.688,2.102-4.688,4.688s2.102,4.688,4.688,4.688s4.688-2.102,4.688-4.688  S52.585,77.188,50,77.188z M50,84.688c-1.551,0-2.812-1.262-2.812-2.812s1.262-2.812,2.812-2.812s2.812,1.262,2.812,2.812  S51.551,84.688,50,84.688z"/><path fill="#000000" d="M71.562,85.625v-71.25c0-2.586-2.102-4.688-4.688-4.688h-33.75c-2.585,0-4.688,2.102-4.688,4.688v71.25  c0,2.586,2.102,4.688,4.688,4.688h33.75C69.46,90.312,71.562,88.211,71.562,85.625z M30.312,85.625v-71.25  c0-1.551,1.262-2.812,2.812-2.812h33.75c1.551,0,2.812,1.262,2.812,2.812v71.25c0,1.551-1.262,2.812-2.812,2.812h-33.75  C31.574,88.438,30.312,87.176,30.312,85.625z"/><path fill="#000000" d="M46.25,17.188h7.5c0.518,0,0.938-0.419,0.938-0.938s-0.419-0.938-0.938-0.938h-7.5  c-0.518,0-0.938,0.419-0.938,0.938S45.732,17.188,46.25,17.188z"/><path fill="#000000" d="M55.625,58.438c-0.518,0-0.938,0.419-0.938,0.938c0,2.586-2.102,4.688-4.688,4.688s-4.688-2.102-4.688-4.688  c0-0.519-0.419-0.938-0.938-0.938s-0.938,0.419-0.938,0.938c0,3.618,2.944,6.562,6.562,6.562s6.562-2.944,6.562-6.562  C56.562,58.856,56.143,58.438,55.625,58.438z"/><path fill="#000000" d="M42.5,52.812h-3.75c-0.518,0-0.938,0.419-0.938,0.938s0.419,0.938,0.938,0.938h3.75  c0.518,0,0.938-0.419,0.938-0.938S43.018,52.812,42.5,52.812z"/><path fill="#000000" d="M61.25,52.812H57.5c-0.518,0-0.938,0.419-0.938,0.938s0.419,0.938,0.938,0.938h3.75  c0.518,0,0.938-0.419,0.938-0.938S61.768,52.812,61.25,52.812z"/><polygon fill="#000000" points="83.611,21.708 74.067,21.672 74.06,24.4 78.718,24.416 74.042,28.394 74.034,31.213 83.576,31.25   83.585,28.521 78.815,28.504 83.6,24.435 "/><polygon fill="#000000" points="85.987,21.337 89.47,21.348 85.977,24.321 85.967,26.427 93.1,26.454 93.106,24.416 89.542,24.402   93.114,21.362 93.125,19.326 85.993,19.297 "/></svg>